<svg width="121" height="85" viewBox="0 0 121 85" fill="none" xmlns="http://www.w3.org/2000/svg">
<path fill-rule="evenodd" clip-rule="evenodd" d="M108.2 2.6C113.4 4 117.5 8.1 118.9 13.3C121.5 22.8 121.4 42.6 121.4 42.6C121.4 42.6 121.4 62.3 118.9 71.8C117.5 77 113.4 81.1 108.2 82.5C98.7 85 60.7 85 60.7 85C60.7 85 22.8 85 13.2 82.4C8 81 3.9 76.9 2.5 71.7C0 62.3 0 42.5 0 42.5C0 42.5 0 22.8 2.5 13.3C3.9 8.1 8.1 3.9 13.2 2.5C22.7 0 60.7 0 60.7 0C60.7 0 98.7 0 108.2 2.6ZM80.2 42.5L48.6 60.7V24.3L80.2 42.5Z" fill="#282828"/>
</svg>
